<svg xmlns="http://www.w3.org/2000/svg"  viewBox="0 0 48 48" width="48px" height="48px"><polyline fill="none" stroke="#ffb74d" stroke-linecap="round" stroke-linejoin="round" stroke-miterlimit="10" stroke-width="4" points="26.91,27 25,31 18,26"/><path fill="#2196f3" d="M28,29v11h12V29l3-2c0-4.418-4-8-9-8s-8.19,3.334-9.239,7.847L28,29z"/><rect width="38" height="2" x="5" y="40" fill="#8d6e63"/><path fill="#ff9800" d="M36.001,16h-4v3c0,0-0.124,2,1.959,2s2.041-2,2.041-2V16z"/><polygon fill="#ffb74d" points="40,29 40,34 40,36 40,37 43,35 43,27"/><path fill="#ffb74d" d="M34,18c2.758,0,5-2.242,5-5s-2.242-5-5-5s-5,2.242-5,5S31.242,18,34,18"/><path fill="#424242" d="M33.781,6C31.344,6.219,29,7.93,29,11.574V13l1,1v-3l6.31-2.201L38,11v3l1-1v-1.203 C39,9.383,38.865,7.592,36,7l-0.485-1H33.781z"/><path fill="#1e88e5" d="M37.25,5c-0.321,0-0.629,0.058-0.916,0.16C35.785,4.455,34.931,4,33.969,4 c-0.954,0-1.802,0.447-2.352,1.141C31.344,5.051,31.053,5,30.75,5C29.231,5,28,6.231,28,7.75c0,1.519,1.231,2.75,2.75,2.75 c0.753,0,1.435-0.303,1.931-0.793C33.072,9.893,33.507,10,33.969,10c0.478,0,0.928-0.115,1.329-0.314 c0.498,0.503,1.188,0.814,1.952,0.814c1.519,0,2.75-1.231,2.75-2.75C40,6.231,38.769,5,37.25,5z"/><path fill="#64b5f6" d="M39,11.5c0,0-2.5-0.5-5-0.5s-5,0.5-5,0.5c0-2,0.5-4,0.5-4s1.188-1,4.625-1c3.438,0,4.375,1,4.375,1 S39,9.5,39,11.5z"/><path fill="#e3f2fd" d="M30,19.834V40h2V19.191C31.294,19.322,30.628,19.543,30,19.834z"/><path fill="#e3f2fd" d="M36,19.197V40h2V19.822C37.371,19.545,36.737,19.341,36,19.197z"/><rect width="6" height="15" x="31" y="25" fill="#e3f2fd"/><path fill="#8d6e63" d="M21,17.005c-0.004,1.657-0.903,2.998-2.007,2.995S16.996,18.652,17,16.995 c0.004-1.657,0.903-2.998,2.007-2.995S21.004,15.348,21,17.005z"/><path fill="#8d6e63" d="M20,16v15c0,0.552-0.448,1-1,1h0c-0.552,0-1-0.448-1-1V16H20z"/><polygon fill="#37474f" points="7,36 5,35 5,34 7,34"/><polygon fill="#37474f" points="16,36 16,34 18,34 18,35"/><rect width="7" height="1" x="8" y="39" fill="#37474f"/><circle cx="13" cy="31.442" r="1" fill="#bbdefb"/><circle cx="11.669" cy="31.331" r="1.331" fill="#bbdefb"/><circle cx="10" cy="31.61" r="1" fill="#bbdefb"/><circle cx="9" cy="32" r="1" fill="#bbdefb"/><circle cx="14" cy="32" r="1" fill="#bbdefb"/><rect width="9" height="7" x="7" y="32" fill="#b0bec5"/></svg>