<svg xmlns="http://www.w3.org/2000/svg"  viewBox="0 0 100 100" width="100px" height="100px"><path fill="#f9e65c" d="M31.165,59.996C31.07,58.844,31,57.682,31,56.5C31,44.626,40.626,35,52.5,35	c4.286,0,8.095,1.042,11.305,2.845l3.504-3.861l0.005-0.005c0-0.001,0.001-0.001,0.001-0.002l-0.064-0.045	C62.829,31.032,57.728,29.5,52.5,29.5c-14.888,0-27,12.112-27,27c0,1.122,0.045,2.268,0.136,3.5l5.523,0L31.165,59.996z"/><path fill="#eddc67" d="M71,70c-5.523,0-10-4.477-10-10v-2h15.579l-3.316-9C70.222,40.828,62.687,35,52.5,35	C40.626,35,31,44.626,31,56.5c0,7.023,2,13.506,2,19.5c0,8-4,12-4,12c6,0,21,0,28-10c8,11,26,12,26,12l-7.368-20H71z"/><path fill="#f05b6c" d="M88,26c0,0-9.981-11.424-28.306-13.631L56,21.5l-1.973-9.49C53.85,12.008,53.678,12,53.5,12	c-10.191,0-19.372,4.301-25.846,11.178L32,30l-7.478-2.994C20.419,32.796,18,39.863,18,47.5C18,64,26,71,26,81c0,0,2-1.5,2-5	c0-2.495-0.429-5.274-0.882-8.217c-0.37-2.4-0.775-5.025-0.981-7.782L26.138,60l-0.502,0c-0.091-1.232-0.136-2.378-0.136-3.5	c0-14.888,12.112-27,27-27c5.228,0,10.329,1.532,14.751,4.432l0.064,0.045c0,0.001-0.001,0.001-0.001,0.002C75,26,88,26,88,26z"/><path fill="#1f212b" d="M25.14,60.075C25.046,58.821,25,57.652,25,56.5C25,41.337,37.337,29,52.5,29	c5.326,0,10.521,1.561,15.026,4.514l-0.549,0.836C62.637,31.504,57.631,30,52.5,30C37.888,30,26,41.888,26,56.5	c0,1.127,0.045,2.271,0.138,3.501L25.14,60.075z"/><rect width="5.521" height="2" x="25.639" y="59" fill="#1f212b"/><path fill="#1f212b" d="M66.4,26.01c-0.125,0-0.25-0.047-0.347-0.14c-0.199-0.191-0.205-0.509-0.014-0.707	c3.307-3.433,7.605-5.758,12.433-6.724c0.258-0.057,0.533,0.12,0.588,0.393c0.055,0.271-0.121,0.534-0.393,0.588	c-4.691,0.938-8.698,3.104-11.907,6.437C66.662,25.959,66.531,26.01,66.4,26.01z"/><path fill="#1f212b" d="M44.5,24c-0.191,0-0.374-0.11-0.457-0.297l-4-9c-0.112-0.252,0.002-0.548,0.254-0.66	s0.548,0.001,0.66,0.254l4,9c0.112,0.252-0.002,0.548-0.254,0.66C44.637,23.986,44.568,24,44.5,24z"/><path fill="#1f212b" d="M48.5,23c-0.22,0-0.42-0.145-0.481-0.366l-0.277-1c-0.074-0.267,0.082-0.542,0.348-0.615	c0.271-0.074,0.541,0.082,0.615,0.348l0.277,1c0.074,0.267-0.082,0.542-0.348,0.615C48.589,22.994,48.544,23,48.5,23z"/><path fill="#1f212b" d="M47.667,20c-0.22,0-0.42-0.145-0.481-0.366l-1.667-6c-0.074-0.266,0.081-0.542,0.348-0.615	c0.27-0.075,0.542,0.082,0.615,0.348l1.667,6c0.074,0.266-0.081,0.542-0.348,0.615C47.756,19.994,47.711,20,47.667,20z"/><path fill="#1f212b" d="M22.5,48c-0.035,0-0.072-0.004-0.108-0.012l-4.5-1c-0.27-0.061-0.439-0.327-0.38-0.597	c0.06-0.269,0.325-0.438,0.597-0.38l4.5,1c0.27,0.061,0.439,0.327,0.38,0.597C22.937,47.842,22.729,48,22.5,48z"/><path fill="#1f212b" d="M21.5,54h-3c-0.276,0-0.5-0.224-0.5-0.5s0.224-0.5,0.5-0.5h3c0.276,0,0.5,0.224,0.5,0.5	S21.776,54,21.5,54z"/><path fill="#1f212b" d="M65.69,17c-0.079,0-0.158-0.019-0.232-0.057c-0.244-0.129-0.339-0.431-0.211-0.676l1.31-2.5	c0.129-0.244,0.434-0.336,0.676-0.211c0.244,0.129,0.339,0.431,0.211,0.676l-1.31,2.5C66.044,16.902,65.87,17,65.69,17z"/><path fill="#1f212b" d="M61.85,24.33c-0.078,0-0.158-0.019-0.231-0.057c-0.245-0.129-0.34-0.431-0.212-0.675l2.79-5.33	c0.13-0.245,0.435-0.336,0.675-0.212c0.245,0.129,0.34,0.431,0.212,0.675l-2.79,5.33C62.203,24.232,62.029,24.33,61.85,24.33z"/><path fill="#1f212b" d="M26,82c-0.152,0-0.306-0.035-0.447-0.105C25.214,81.725,25,81.379,25,81	c0-4.184-1.476-7.844-3.184-12.082C19.559,63.318,17,56.972,17,47.5c0-7.595,2.318-14.881,6.705-21.072	c0.268-0.377,0.761-0.52,1.188-0.351l4.593,1.84l-2.677-4.201c-0.245-0.386-0.198-0.89,0.115-1.223C33.902,15.082,43.34,11,53.5,11	l0.533,0.01c0.472,0.003,0.877,0.335,0.974,0.797l1.302,6.265l2.459-6.077c0.169-0.418,0.591-0.674,1.046-0.618	c18.494,2.228,28.521,13.488,28.939,13.966c0.258,0.296,0.319,0.714,0.157,1.071S88.393,27,88.001,27	c-0.126,0-12.675,0.103-19.967,7.672l-3.707,4.086l-1.48-1.344l3.722-4.102c6.014-6.244,14.944-7.799,19.128-8.185	c-3.362-3.075-12.102-9.859-25.364-11.669l-3.405,8.416c-0.164,0.407-0.565,0.666-1.017,0.621c-0.438-0.04-0.8-0.361-0.89-0.793	l-1.809-8.702c-9.235,0.074-17.821,3.721-24.292,10.304l3.924,6.158c0.233,0.366,0.203,0.841-0.074,1.176	c-0.277,0.333-0.739,0.448-1.142,0.29L24.89,28.23C21.034,33.939,19,40.585,19,47.5c0,9.084,2.481,15.239,4.671,20.67	c1.313,3.258,2.57,6.376,3.085,9.715C26.902,77.356,27,76.73,27,76c0-2.42-0.423-5.161-0.871-8.064	c-0.371-2.411-0.782-5.084-0.989-7.86l1.994-0.148c0.202,2.698,0.606,5.33,0.964,7.652C28.565,70.611,29,73.427,29,76	c0,3.954-2.302,5.727-2.4,5.8C26.424,81.933,26.212,82,26,82z"/><path fill="#1f212b" d="M83,91c-0.019,0-0.037-0.001-0.056-0.002c-0.729-0.04-17.438-1.085-25.933-11.354	C49.424,89.001,34.677,89,29,89c-0.404,0-0.77-0.243-0.924-0.617c-0.155-0.374-0.069-0.804,0.217-1.09	C28.327,87.258,32,83.443,32,76c0-2.802-0.451-5.729-0.929-8.826C30.545,63.759,30,60.228,30,56.5C30,44.094,40.094,34,52.5,34	c10.022,0,18.338,5.614,21.701,14.651l7.737,21.003c0.19,0.519-0.074,1.093-0.593,1.284c-0.52,0.189-1.093-0.074-1.284-0.593	L75.882,59H62v1c0,4.963,4.037,9,9,9h4.632c0.419,0,0.794,0.261,0.938,0.654l7.368,20c0.116,0.316,0.065,0.669-0.135,0.94	C83.615,90.851,83.316,91,83,91z M57,77c0.319,0,0.62,0.153,0.809,0.412c6.283,8.639,19.244,10.903,23.702,11.438L74.935,71H71	c-6.065,0-11-4.935-11-11v-2c0-0.553,0.447-1,1-1h14.146l-2.82-7.654C69.263,41.115,61.665,36,52.5,36C41.196,36,32,45.196,32,56.5	c0,3.574,0.532,7.028,1.048,10.369C33.537,70.045,34,73.045,34,76c0,5.365-1.713,9.023-2.977,10.991	c6.844-0.083,19.113-0.93,25.157-9.564c0.186-0.265,0.487-0.424,0.811-0.427C56.994,77,56.997,77,57,77z"/><path fill="#1f212b" d="M77.5,75H71c-8.271,0-15-6.729-15-15v-4.5c0-1.379,1.121-2.5,2.5-2.5h4c0.276,0,0.5,0.224,0.5,0.5	S62.776,54,62.5,54h-4c-0.827,0-1.5,0.673-1.5,1.5V60c0,7.72,6.28,14,14,14h6.5c0.276,0,0.5,0.224,0.5,0.5S77.776,75,77.5,75z"/><path fill="#1f212b" d="M74.5,54h-2c-0.276,0-0.5-0.224-0.5-0.5s0.224-0.5,0.5-0.5h2c0.276,0,0.5,0.224,0.5,0.5	S74.776,54,74.5,54z"/><path fill="#1f212b" d="M70.5,54h-4c-0.276,0-0.5-0.224-0.5-0.5s0.224-0.5,0.5-0.5h4c0.276,0,0.5,0.224,0.5,0.5	S70.776,54,70.5,54z"/></svg>