<svg xmlns="http://www.w3.org/2000/svg"  viewBox="0 0 48 48" width="48px" height="48px"><path fill="#ffb74d" d="M29,37l-18-2l-2-3V13L6,6h19c2.209,0,4,1.791,4,4V37z"/><path fill="#f57c00" d="M9,13H2V9.5C2,7.567,3.567,6,5.5,6l0,0C7.433,6,9,7.567,9,9.5V13z"/><path fill="#f57c00" d="M29,37H13l-2-2l-2-2v-3h24v3C33,35.209,31.209,37,29,37z"/><path fill="#ffb74d" d="M9,29h7v4.5c0,1.933-1.567,3.5-3.5,3.5l0,0C10.567,37,9,35.433,9,33.5V29z"/><path fill="#ff3d00" d="M18.547,14.998C18.826,14.679,19,14.262,19,13.8c0-0.994-0.784-1.8-1.75-1.8s-1.75,0.806-1.75,1.8	c0-0.994-0.784-1.8-1.75-1.8S12,12.806,12,13.8c0,0.351,0.102,0.676,0.271,0.953l-0.004,0.001l0.011,0.011	C12.417,14.99,15.452,18,15.452,18l3.101-3L18.547,14.998z"/><rect width="5" height="2" x="21" y="12" fill="#fb8c00"/><rect width="5" height="2" x="21" y="16" fill="#fb8c00"/><rect width="14" height="2" x="12" y="20" fill="#fb8c00"/><rect width="14" height="2" x="12" y="24" fill="#fb8c00"/><path fill="#90caf9" d="M36,30h-9v-2c0-1.105,0.895-2,2-2h5c1.105,0,2,0.895,2,2V30z"/><path fill="#90caf9" d="M32.172,28h-1.343c-1.811,0-3.548,0.719-4.828,2l0,0c-1.281,1.281-2,3.017-2,4.828l0,0	c0,1.421,0.386,2.815,1.117,4.034l0.718,1.196C26.558,41.263,27.86,42,29.265,42h4.47c1.405,0,2.707-0.737,3.43-1.942l0.718-1.196	C38.614,37.644,39,36.249,39,34.828l0,0c0-1.811-0.719-3.548-2-4.828l0,0C35.719,28.719,33.983,28,32.172,28z"/><path fill="#673ab7" d="M35.892,34h-8.784C27.042,34.293,27,34.592,27,34.897c0,0.853,0.232,1.689,0.67,2.42l0.431,0.718	c0.434,0.723,1.215,1.165,2.058,1.165h2.682c0.843,0,1.624-0.442,2.058-1.165l0.431-0.718c0.439-0.731,0.67-1.568,0.67-2.42	C36,34.592,35.958,34.293,35.892,34z"/><path fill="#42a5f5" d="M31.771,26h-1.497c-0.105,0.317-0.223,0.628-0.318,0.95c-0.823,2.974-1.209,6.003-0.945,9.196	c0.002,0.018,0.004,0.039,0.006,0.057c0.077,0.547,0.583,0.929,1.13,0.852c0.547-0.077,0.929-0.583,0.852-1.13l-0.01-0.07	c-0.384-2.734-0.204-5.733,0.419-8.531C31.513,26.879,31.646,26.44,31.771,26z"/><path fill="#ffccbc" d="M33.682,18.664c-1.404,2.299-2.555,4.75-3.409,7.336h1.497c0.669-2.355,1.608-4.66,2.778-6.836	c1.4-2.581,3.12-5.007,5.203-7.103C41.806,9.938,44.282,8.222,47,7c-2.779,1.066-5.386,2.659-7.594,4.699	C37.167,13.713,35.268,16.092,33.682,18.664z"/><path fill="#ff3d00" d="M39.406,11.699C41.614,9.659,44.221,8.066,47,7c-7.093,0.645-10.731,2.731-13,5 c-0.388,0.388-0.752,0.873-1.061,1.342C32.31,14.296,32,15.424,32,16.566V17c0,0-0.005-0.013-1-1 c-0.724,3.619,0.122,5.66,0.646,6.515c0.603-1.325,1.279-2.612,2.036-3.851C35.268,16.092,37.167,13.713,39.406,11.699z"/><path fill="#dd2c00" d="M39.751,12.061c-2.083,2.096-3.803,4.521-5.203,7.103c-0.712,1.324-1.326,2.699-1.858,4.1 C36.95,24.722,40.152,21.695,43,16l-3-1h0.089c2.302-0.008,4.367-1.403,5.259-3.524C46.418,8.933,47,7,47,7 C44.282,8.222,41.806,9.938,39.751,12.061z"/></svg>