<svg xmlns="http://www.w3.org/2000/svg"  viewBox="0 0 64 64" width="64px" height="64px"><path fill="#454a6d" d="M49,51H8c-2.761,0-5,2.239-5,5v0V10c0-2.761,2.239-5,5-5h41V51z"/><path fill="#dbd8d5" d="M49,61H8c-2.761,0-5-2.239-5-5v0c0-2.761,2.239-5,5-5h41V61z"/><path fill="#e89d43" d="M35,38v-9L61,3v8.059c0,6.365-2.529,12.47-7.029,16.971L44,38H35z"/><circle cx="26" cy="19" r="9" fill="#33385c"/><circle cx="26" cy="17" r="3" fill="#4ac3ed"/><path fill="#4ac3ed" d="M26,20c-3.215,0-5.832,2.531-5.985,5.708C21.606,27.129,23.699,28,26,28s4.394-0.871,5.985-2.292	C31.832,22.531,29.215,20,26,20z"/><path fill="#0d1030" d="M61.383,2.076c-0.373-0.154-0.804-0.07-1.09,0.217L50,12.586V5c0-0.552-0.447-1-1-1H8	c-3.309,0-6,2.691-6,6v46c0,3.309,2.691,6,6,6h41c0.553,0,1-0.448,1-1V33.414l4.678-4.678c4.722-4.722,7.322-11,7.322-17.677V3	C62,2.596,61.757,2.231,61.383,2.076z M48,60H8c-2.206,0-4-1.794-4-4s1.794-4,4-4h40V60z M48,50H8c-1.538,0-2.937,0.586-4,1.54V10	c0-2.206,1.794-4,4-4h40v8.586L34.293,28.293C34.105,28.48,34,28.735,34,29v8.586l-5.707,5.707l1.414,1.414L35.414,39H44	c0.266,0,0.52-0.105,0.707-0.293L48,35.414V50z M60,11.059c0,6.144-2.393,11.919-6.736,16.263L43.586,37h-6.172l16.293-16.293	l-1.414-1.414L36,35.586v-6.172l24-24V11.059z"/><path fill="#0d1030" d="M26,29c5.514,0,10-4.486,10-10S31.514,9,26,9s-10,4.486-10,10S20.486,29,26,29z M21.081,25.296	C21.427,22.857,23.491,21,26,21s4.573,1.857,4.919,4.296C29.56,26.36,27.855,27,26,27S22.44,26.36,21.081,25.296z M24,17	c0-1.103,0.897-2,2-2s2,0.897,2,2s-0.897,2-2,2S24,18.103,24,17z M26,11c4.411,0,8,3.589,8,8c0,1.699-0.536,3.273-1.443,4.57	c-0.639-1.734-1.942-3.132-3.595-3.906C29.6,18.955,30,18.027,30,17c0-2.206-1.794-4-4-4s-4,1.794-4,4	c0,1.027,0.4,1.955,1.038,2.664c-1.653,0.774-2.956,2.172-3.595,3.906C18.536,22.273,18,20.699,18,19C18,14.589,21.589,11,26,11z"/><rect width="10" height="2" x="17" y="43" fill="#0d1030"/><rect width="13" height="2" x="17" y="38" fill="#0d1030"/><rect width="15" height="2" x="17" y="33" fill="#0d1030"/></svg>